<svg width="575" height="80" viewBox="0 0 575 80" fill="none" xmlns="http://www.w3.org/2000/svg">
<rect width="575" height="80" rx="20" fill="white" fill-opacity="0.3"/>
<g filter="url(#filter0_d_0_1)">
<path d="M43.4507 64.22C41.1307 64.22 39.0707 63.6 37.2707 62.36C35.5107 61.16 34.1107 59.44 33.0707 57.2C32.0707 54.96 31.5707 52.32 31.5707 49.28C31.5707 46.2 32.0507 43.08 33.0107 39.92C33.9707 36.76 35.2907 33.76 36.9707 30.92C38.6507 28.04 40.5707 25.48 42.7307 23.24C44.8907 20.96 47.1707 19.16 49.5707 17.84C52.0107 16.52 54.4507 15.86 56.8907 15.86C57.5307 15.86 58.1707 15.94 58.8107 16.1C59.4907 16.22 60.0907 16.48 60.6107 16.88C60.3307 16.88 60.1107 16.88 59.9507 16.88C59.8307 16.88 59.7107 16.88 59.5907 16.88C57.5107 16.88 55.4107 17.56 53.2907 18.92C51.1707 20.24 49.1507 22.06 47.2307 24.38C45.3107 26.66 43.5907 29.24 42.0707 32.12C40.5507 34.96 39.3507 37.92 38.4707 41C37.5907 44.08 37.1507 47.06 37.1507 49.94C37.1507 52.06 37.4107 54.04 37.9307 55.88C38.4907 57.68 39.3707 59.12 40.5707 60.2C41.8107 61.32 43.3907 61.88 45.3107 61.88C47.5507 61.88 49.6307 61.2 51.5507 59.84C53.5107 58.48 55.2707 56.66 56.8307 54.38C58.4307 52.06 59.7907 49.48 60.9107 46.64C62.0707 43.76 62.9507 40.82 63.5507 37.82C64.1507 34.78 64.4507 31.86 64.4507 29.06C64.4507 27.94 64.3707 26.74 64.2107 25.46C64.0507 24.14 63.7707 23.02 63.3707 22.1C63.0107 21.14 62.4707 20.66 61.7507 20.66C61.0707 20.66 60.3107 21.12 59.4707 22.04C58.6307 22.92 57.8307 24.04 57.0707 25.4C56.3107 26.72 55.6307 28.12 55.0307 29.6C54.4307 31.04 54.0107 32.32 53.7707 33.44C52.6507 33.2 51.8307 32.8 51.3107 32.24C50.8307 31.68 50.5907 31.04 50.5907 30.32C50.5907 29.24 50.9507 28.06 51.6707 26.78C52.4307 25.46 53.3907 24.2 54.5507 23C55.7507 21.76 56.9707 20.76 58.2107 20C59.4907 19.2 60.6707 18.8 61.7507 18.8C62.8307 18.8 63.7107 19.2 64.3907 20C65.0707 20.76 65.6107 21.76 66.0107 23C66.4107 24.24 66.6707 25.58 66.7907 27.02C66.9507 28.42 67.0307 29.72 67.0307 30.92C67.0307 35.2 66.5307 39.1 65.5307 42.62C64.5707 46.1 63.2507 49.18 61.5707 51.86C59.8907 54.54 58.0107 56.8 55.9307 58.64C53.8907 60.48 51.7907 61.86 49.6307 62.78C47.4707 63.74 45.4107 64.22 43.4507 64.22ZM79.6602 64.22C77.7402 64.22 76.4002 63.8 75.6402 62.96C74.9202 62.16 74.5602 61.12 74.5602 59.84C74.5602 58.68 74.8002 57.3 75.2802 55.7C75.7602 54.1 76.2402 52.56 76.7202 51.08C77.5202 48.8 78.4002 46.32 79.3602 43.64C80.3602 40.96 81.4002 38.24 82.4802 35.48C83.5602 32.72 84.6402 30.02 85.7202 27.38C86.8402 24.74 87.9002 22.32 88.9002 20.12C86.1402 20.16 83.8002 20.24 81.8802 20.36C80.0002 20.44 78.2802 20.56 76.7202 20.72C75.2002 20.88 73.5602 21.12 71.8002 21.44C71.9602 19.96 72.7002 18.82 74.0202 18.02C75.3402 17.22 77.1002 16.66 79.3002 16.34C81.5002 15.98 84.0202 15.8 86.8602 15.8C89.2202 15.8 91.3602 15.88 93.2802 16.04C95.2002 16.2 97.0002 16.38 98.6802 16.58C100.4 16.74 102.1 16.86 103.78 16.94C103.7 17.82 103.32 18.38 102.64 18.62C101.96 18.86 101.08 18.98 100 18.98C99.2802 19.38 98.4602 19.66 97.5402 19.82C96.6202 19.94 95.6602 20.02 94.6602 20.06C93.7002 20.1 92.7602 20.12 91.8402 20.12C90.3602 23.84 88.8002 28.18 87.1602 33.14C85.5202 38.06 83.9202 43.4 82.3602 49.16C81.8002 51.2 81.3002 53 80.8602 54.56C80.4602 56.12 80.1402 57.56 79.9002 58.88C79.7002 60.16 79.6002 61.46 79.6002 62.78C79.6002 62.98 79.6002 63.2 79.6002 63.44C79.6002 63.68 79.6202 63.94 79.6602 64.22ZM102.81 64.22C103.05 62.82 103.31 61.38 103.59 59.9C103.91 58.42 104.31 56.78 104.79 54.98C105.31 53.18 105.91 51.1 106.59 48.74C107.31 46.34 108.21 43.54 109.29 40.34C108.65 40.38 107.99 40.44 107.31 40.52C106.63 40.6 105.97 40.66 105.33 40.7C105.37 39.62 105.85 38.78 106.77 38.18C107.69 37.54 108.89 37.08 110.37 36.8C110.61 36.04 110.85 35.32 111.09 34.64C111.33 33.92 111.59 33.16 111.87 32.36C112.15 31.52 112.45 30.62 112.77 29.66C113.13 28.7 113.53 27.58 113.97 26.3C114.41 25.02 114.91 23.56 115.47 21.92C115.59 21.56 115.75 21.06 115.95 20.42C116.15 19.78 116.25 19.18 116.25 18.62C116.25 18.3 116.19 18.08 116.07 17.96C115.99 17.84 115.77 17.78 115.41 17.78C114.53 17.78 113.65 18.16 112.77 18.92C111.89 19.68 111.09 20.64 110.37 21.8C109.69 22.96 109.15 24.16 108.75 25.4C108.35 26.64 108.15 27.76 108.15 28.76C108.15 29.08 108.19 29.44 108.27 29.84C108.35 30.2 108.45 30.58 108.57 30.98C107.13 30.98 106.11 30.64 105.51 29.96C104.91 29.28 104.61 28.42 104.61 27.38C104.61 26.02 105.01 24.66 105.81 23.3C106.61 21.94 107.65 20.7 108.93 19.58C110.21 18.42 111.55 17.5 112.95 16.82C114.35 16.14 115.63 15.8 116.79 15.8C117.95 15.8 118.73 16.12 119.13 16.76C119.53 17.36 119.73 18.04 119.73 18.8C119.73 19.24 119.67 19.68 119.55 20.12C119.47 20.56 119.37 20.98 119.25 21.38L114.69 36.38C115.21 36.34 115.75 36.32 116.31 36.32C116.87 36.28 117.43 36.26 117.99 36.26C119.91 36.26 121.71 36.32 123.39 36.44C125.11 36.52 126.75 36.64 128.31 36.8C129.19 33.96 129.99 31.36 130.71 29C131.47 26.6 132.15 24.56 132.75 22.88C133.39 21.16 133.91 19.86 134.31 18.98C134.47 18.66 134.69 18.26 134.97 17.78C135.25 17.26 135.63 16.8 136.11 16.4C136.63 16 137.25 15.8 137.97 15.8C137.41 17.24 136.77 19.12 136.05 21.44C135.33 23.72 134.59 26.22 133.83 28.94C133.07 31.66 132.35 34.36 131.67 37.04C132.39 37.08 133.15 37.14 133.95 37.22C134.79 37.26 135.59 37.28 136.35 37.28C135.39 38.28 134.47 38.9 133.59 39.14C132.71 39.34 131.87 39.44 131.07 39.44C130.67 41.04 130.29 42.58 129.93 44.06C129.61 45.54 129.33 46.94 129.09 48.26C128.45 51.38 127.99 54.06 127.71 56.3C127.47 58.54 127.35 60.34 127.35 61.7C127.35 62.26 127.35 62.72 127.35 63.08C127.39 63.48 127.45 63.86 127.53 64.22C125.81 64.06 124.61 63.6 123.93 62.84C123.29 62.12 122.97 60.92 122.97 59.24C122.97 58.24 123.07 57.04 123.27 55.64C123.51 54.2 123.85 52.6 124.29 50.84C124.61 49.56 125.05 47.94 125.61 45.98C126.17 44.02 126.81 41.86 127.53 39.5C125.09 39.5 123.05 39.52 121.41 39.56C119.77 39.6 118.35 39.64 117.15 39.68C115.95 39.72 114.75 39.8 113.55 39.92C113.07 41.52 112.55 43.18 111.99 44.9C111.47 46.58 110.93 48.28 110.37 50C109.85 51.72 109.33 53.44 108.81 55.16C108.29 56.88 107.77 58.6 107.25 60.32C106.81 61.72 106.13 62.72 105.21 63.32C104.29 63.92 103.49 64.22 102.81 64.22ZM149.075 64.22C146.595 64.22 144.455 63.72 142.655 62.72C140.855 61.72 139.455 60.38 138.455 58.7C137.495 57.02 137.015 55.18 137.015 53.18C137.015 51.38 137.395 49.6 138.155 47.84C138.955 46.08 140.055 44.48 141.455 43.04C142.855 41.6 144.495 40.4 146.375 39.44C148.255 38.48 150.275 37.88 152.435 37.64C150.915 36.36 149.795 34.9 149.075 33.26C148.355 31.62 147.995 29.98 147.995 28.34C147.995 26.22 148.515 24.2 149.555 22.28C150.635 20.36 152.115 18.82 153.995 17.66C155.915 16.46 158.095 15.86 160.535 15.86C162.855 15.86 164.615 16.44 165.815 17.6C167.055 18.72 167.675 20.34 167.675 22.46C167.675 23.98 167.395 25.44 166.835 26.84C166.315 28.24 165.675 29.38 164.915 30.26C164.155 31.14 163.435 31.58 162.755 31.58C162.275 31.58 161.815 31.38 161.375 30.98C160.935 30.54 160.575 30.04 160.295 29.48C161.735 28.28 162.935 27 163.895 25.64C164.895 24.24 165.395 22.78 165.395 21.26C165.395 20.02 165.015 19.08 164.255 18.44C163.535 17.76 162.495 17.42 161.135 17.42C159.295 17.42 157.735 17.98 156.455 19.1C155.215 20.18 154.275 21.62 153.635 23.42C152.995 25.18 152.675 27.1 152.675 29.18C152.675 30.7 152.915 32.32 153.395 34.04C153.915 35.72 154.935 37.2 156.455 38.48C153.735 38.92 151.355 39.94 149.315 41.54C147.275 43.1 145.695 44.94 144.575 47.06C143.455 49.18 142.895 51.28 142.895 53.36C142.895 54.64 143.135 55.94 143.615 57.26C144.135 58.58 144.955 59.68 146.075 60.56C147.235 61.48 148.755 61.94 150.635 61.94C152.795 61.94 154.915 61.34 156.995 60.14C159.115 58.94 161.055 57.36 162.815 55.4C164.575 53.4 165.995 51.28 167.075 49.04L168.155 49.76C166.715 52.48 165.035 54.94 163.115 57.14C161.195 59.3 159.055 61.02 156.695 62.3C154.335 63.58 151.795 64.22 149.075 64.22ZM198.141 66.26C197.221 66.26 196.161 65.72 194.961 64.64C193.761 63.56 192.501 62.14 191.181 60.38C189.901 58.66 188.621 56.76 187.341 54.68C186.061 52.56 184.881 50.46 183.801 48.38C182.721 46.3 181.801 44.42 181.041 42.74C179.921 46.58 178.841 50.36 177.801 54.08C176.801 57.8 175.861 61.18 174.981 64.22C173.901 64.22 172.921 63.92 172.041 63.32C171.161 62.76 170.721 62.02 170.721 61.1C170.721 60.66 170.821 60.12 171.021 59.48C171.221 58.88 171.401 58.32 171.561 57.8C172.601 54.52 173.601 51.5 174.561 48.74C175.521 45.94 176.441 43.3 177.321 40.82C178.201 38.3 179.101 35.82 180.021 33.38C180.981 30.9 181.981 28.38 183.021 25.82C184.101 23.26 185.281 20.52 186.561 17.6C184.921 17.92 183.481 18.34 182.241 18.86C181.041 19.38 180.061 19.86 179.301 20.3C178.581 20.74 178.081 20.96 177.801 20.96C177.601 20.96 177.341 20.86 177.021 20.66C176.701 20.46 176.401 20.22 176.121 19.94C175.881 19.62 175.761 19.34 175.761 19.1C176.801 18.66 178.041 18.18 179.481 17.66C180.921 17.14 182.501 16.7 184.221 16.34C185.941 15.98 187.721 15.8 189.561 15.8C191.321 15.8 193.101 16.02 194.901 16.46C196.741 16.86 198.421 17.52 199.941 18.44C201.501 19.32 202.761 20.48 203.721 21.92C204.681 23.36 205.161 25.1 205.161 27.14C205.161 29.06 204.721 30.74 203.841 32.18C202.961 33.58 201.801 34.76 200.361 35.72C198.921 36.68 197.341 37.46 195.621 38.06C193.901 38.62 192.201 39.06 190.521 39.38C188.841 39.7 187.301 39.92 185.901 40.04C184.501 40.12 183.421 40.16 182.661 40.16C183.901 42.28 185.101 44.32 186.261 46.28C187.421 48.24 188.681 50.2 190.041 52.16C191.401 54.12 192.981 56.08 194.781 58.04C196.621 60 198.821 62 201.381 64.04C201.141 64.68 200.681 65.2 200.001 65.6C199.321 66.04 198.701 66.26 198.141 66.26ZM182.121 38.96C184.321 38.8 186.521 38.44 188.721 37.88C190.921 37.32 192.921 36.52 194.721 35.48C196.561 34.44 198.021 33.14 199.101 31.58C200.221 29.98 200.781 28.08 200.781 25.88C200.781 23.72 200.261 22.04 199.221 20.84C198.181 19.6 196.841 18.72 195.201 18.2C193.561 17.64 191.841 17.36 190.041 17.36C188.681 20.08 187.341 23.34 186.021 27.14C184.701 30.9 183.401 34.84 182.121 38.96ZM236.577 64.22C233.697 64.22 231.337 63.5 229.497 62.06C227.697 60.66 226.377 58.84 225.537 56.6C224.737 54.32 224.337 51.96 224.337 49.52C224.337 46.36 224.817 43.18 225.777 39.98C226.737 36.78 228.057 33.74 229.737 30.86C231.417 27.98 233.317 25.42 235.437 23.18C237.597 20.9 239.857 19.12 242.217 17.84C244.617 16.52 246.977 15.86 249.297 15.86C250.977 15.86 252.357 16.26 253.437 17.06C254.517 17.86 255.057 19.22 255.057 21.14C255.057 22.3 254.857 23.62 254.457 25.1C254.057 26.54 253.497 27.94 252.777 29.3C252.097 30.66 251.337 31.78 250.497 32.66C249.657 33.54 248.817 33.98 247.977 33.98C247.617 33.98 247.237 33.88 246.837 33.68C246.477 33.44 246.157 33.02 245.877 32.42C246.477 31.74 247.137 30.9 247.857 29.9C248.617 28.9 249.337 27.84 250.017 26.72C250.737 25.6 251.297 24.5 251.697 23.42C252.137 22.3 252.357 21.34 252.357 20.54C252.357 19.74 252.137 19.12 251.697 18.68C251.257 18.2 250.517 17.96 249.477 17.96C247.757 17.96 245.957 18.64 244.077 20C242.237 21.36 240.437 23.2 238.677 25.52C236.957 27.8 235.397 30.36 233.997 33.2C232.637 36.04 231.537 38.94 230.697 41.9C229.897 44.86 229.497 47.68 229.497 50.36C229.497 52.32 229.777 54.18 230.337 55.94C230.897 57.7 231.817 59.12 233.097 60.2C234.377 61.32 236.017 61.88 238.017 61.88C240.137 61.88 242.257 61.28 244.377 60.08C246.497 58.88 248.437 57.3 250.197 55.34C251.997 53.38 253.417 51.28 254.457 49.04L255.537 49.76C254.177 52.4 252.537 54.82 250.617 57.02C248.737 59.18 246.617 60.92 244.257 62.24C241.897 63.56 239.337 64.22 236.577 64.22ZM270.171 64.22C267.851 64.22 265.791 63.6 263.991 62.36C262.231 61.16 260.831 59.44 259.791 57.2C258.791 54.96 258.291 52.32 258.291 49.28C258.291 46.2 258.771 43.08 259.731 39.92C260.691 36.76 262.011 33.76 263.691 30.92C265.371 28.04 267.291 25.48 269.451 23.24C271.611 20.96 273.891 19.16 276.291 17.84C278.731 16.52 281.171 15.86 283.611 15.86C284.251 15.86 284.891 15.94 285.531 16.1C286.211 16.22 286.811 16.48 287.331 16.88C287.051 16.88 286.831 16.88 286.671 16.88C286.551 16.88 286.431 16.88 286.311 16.88C284.231 16.88 282.131 17.56 280.011 18.92C277.891 20.24 275.871 22.06 273.951 24.38C272.031 26.66 270.311 29.24 268.791 32.12C267.271 34.96 266.071 37.92 265.191 41C264.311 44.08 263.871 47.06 263.871 49.94C263.871 52.06 264.131 54.04 264.651 55.88C265.211 57.68 266.091 59.12 267.291 60.2C268.531 61.32 270.111 61.88 272.031 61.88C274.271 61.88 276.351 61.2 278.271 59.84C280.231 58.48 281.991 56.66 283.551 54.38C285.151 52.06 286.511 49.48 287.631 46.64C288.791 43.76 289.671 40.82 290.271 37.82C290.871 34.78 291.171 31.86 291.171 29.06C291.171 27.94 291.091 26.74 290.931 25.46C290.771 24.14 290.491 23.02 290.091 22.1C289.731 21.14 289.191 20.66 288.471 20.66C287.791 20.66 287.031 21.12 286.191 22.04C285.351 22.92 284.551 24.04 283.791 25.4C283.031 26.72 282.351 28.12 281.751 29.6C281.151 31.04 280.731 32.32 280.491 33.44C279.371 33.2 278.551 32.8 278.031 32.24C277.551 31.68 277.311 31.04 277.311 30.32C277.311 29.24 277.671 28.06 278.391 26.78C279.151 25.46 280.111 24.2 281.271 23C282.471 21.76 283.691 20.76 284.931 20C286.211 19.2 287.391 18.8 288.471 18.8C289.551 18.8 290.431 19.2 291.111 20C291.791 20.76 292.331 21.76 292.731 23C293.131 24.24 293.391 25.58 293.511 27.02C293.671 28.42 293.751 29.72 293.751 30.92C293.751 35.2 293.251 39.1 292.251 42.62C291.291 46.1 289.971 49.18 288.291 51.86C286.611 54.54 284.731 56.8 282.651 58.64C280.611 60.48 278.511 61.86 276.351 62.78C274.191 63.74 272.131 64.22 270.171 64.22ZM329.438 64.94C327.958 64.94 326.738 64.3 325.778 63.02C324.858 61.74 324.398 60.22 324.398 58.46C324.398 57.98 324.418 57.34 324.458 56.54C324.538 55.7 324.638 54.78 324.758 53.78C323.318 56.86 321.538 59.36 319.418 61.28C317.298 63.24 314.778 64.22 311.858 64.22C309.258 64.22 307.258 63.44 305.858 61.88C304.498 60.32 303.818 58.28 303.818 55.76C303.818 54.12 304.058 52.26 304.538 50.18C305.058 48.06 305.678 45.82 306.398 43.46C307.158 41.06 307.898 38.66 308.618 36.26C309.378 33.82 309.998 31.48 310.478 29.24C310.998 26.96 311.258 24.9 311.258 23.06C311.258 19.54 310.138 17.78 307.898 17.78C306.818 17.78 305.878 18.12 305.078 18.8C304.318 19.48 303.678 20.36 303.158 21.44C302.638 22.48 302.258 23.58 302.018 24.74C301.778 25.9 301.658 26.92 301.658 27.8C301.658 28.36 301.698 28.94 301.778 29.54C301.898 30.1 302.038 30.6 302.198 31.04C300.558 31.04 299.398 30.62 298.718 29.78C298.038 28.94 297.698 27.92 297.698 26.72C297.698 25.48 297.998 24.22 298.598 22.94C299.198 21.66 300.018 20.48 301.058 19.4C302.138 18.32 303.378 17.46 304.778 16.82C306.218 16.14 307.738 15.8 309.338 15.8C311.618 15.8 313.258 16.48 314.258 17.84C315.298 19.2 315.818 21 315.818 23.24C315.818 24.72 315.638 26.36 315.278 28.16C314.918 29.92 314.458 31.78 313.898 33.74C313.338 35.66 312.738 37.58 312.098 39.5C311.178 42.5 310.358 45.32 309.638 47.96C308.918 50.56 308.558 52.88 308.558 54.92C308.558 56.76 308.938 58.32 309.698 59.6C310.458 60.92 311.738 61.58 313.538 61.58C315.178 61.58 316.678 61.04 318.038 59.96C319.398 58.92 320.598 57.58 321.638 55.94C322.678 54.26 323.558 52.5 324.278 50.66C324.998 48.82 325.558 47.1 325.958 45.5C326.518 43.1 327.138 40.56 327.818 37.88C328.498 35.2 329.198 32.56 329.918 29.96C330.678 27.32 331.418 24.94 332.138 22.82C332.898 20.7 333.638 19 334.358 17.72C335.078 16.44 335.778 15.8 336.458 15.8C336.818 15.8 337.298 16 337.898 16.4C338.498 16.76 339.098 17.26 339.698 17.9C339.378 18.14 338.878 18.98 338.198 20.42C337.518 21.86 336.758 23.72 335.918 26C335.078 28.24 334.238 30.72 333.398 33.44C332.558 36.12 331.778 38.86 331.058 41.66C330.338 44.46 329.758 47.14 329.318 49.7C328.878 52.26 328.658 54.5 328.658 56.42C328.658 59.1 329.038 60.88 329.798 61.76C330.598 62.68 331.918 63.14 333.758 63.14C333.078 63.74 332.338 64.18 331.538 64.46C330.778 64.78 330.078 64.94 329.438 64.94ZM342.287 64.22C342.807 62.26 343.427 60.1 344.147 57.74C344.907 55.38 345.787 52.58 346.787 49.34C347.827 46.1 349.007 42.24 350.327 37.76C351.687 33.28 353.247 28 355.007 21.92C355.087 21.76 355.167 21.44 355.247 20.96C355.367 20.44 355.427 19.96 355.427 19.52C355.427 19.12 355.367 18.82 355.247 18.62C355.127 18.42 354.907 18.32 354.587 18.32C353.667 18.32 352.787 18.68 351.947 19.4C351.107 20.12 350.367 21.02 349.727 22.1C349.127 23.18 348.647 24.32 348.287 25.52C347.967 26.68 347.807 27.72 347.807 28.64C347.807 29.52 347.927 30.3 348.167 30.98C346.727 30.98 345.707 30.64 345.107 29.96C344.507 29.28 344.207 28.44 344.207 27.44C344.207 26.08 344.607 24.72 345.407 23.36C346.207 21.96 347.227 20.7 348.467 19.58C349.747 18.42 351.087 17.5 352.487 16.82C353.887 16.14 355.167 15.8 356.327 15.8C357.607 15.8 358.647 16.32 359.447 17.36C360.287 18.36 360.947 19.76 361.427 21.56C361.947 23.32 362.387 25.32 362.747 27.56C363.107 29.8 363.427 32.12 363.707 34.52C364.027 36.92 364.307 39.1 364.547 41.06C364.827 43.02 365.067 44.78 365.267 46.34C365.507 47.9 365.707 49.3 365.867 50.54C366.067 51.78 366.247 52.88 366.407 53.84C366.767 51.96 367.207 49.88 367.727 47.6C368.247 45.28 368.807 42.9 369.407 40.46C370.047 37.98 370.687 35.58 371.327 33.26C371.967 30.9 372.567 28.74 373.127 26.78C373.727 24.78 374.267 23.08 374.747 21.68C375.227 20.28 375.607 19.32 375.887 18.8C376.127 18.24 376.607 17.6 377.327 16.88C378.087 16.16 378.987 15.8 380.027 15.8C379.347 17.6 378.567 19.84 377.687 22.52C376.847 25.16 375.987 28.04 375.107 31.16C374.227 34.24 373.367 37.4 372.527 40.64C371.687 43.84 370.927 46.96 370.247 50C369.607 53 369.087 55.74 368.687 58.22C368.327 60.66 368.147 62.66 368.147 64.22C366.827 64.22 365.747 63.86 364.907 63.14C364.067 62.42 363.467 61.12 363.107 59.24C362.907 58.32 362.647 57 362.327 55.28C362.047 53.52 361.727 51.54 361.367 49.34C361.007 47.1 360.627 44.78 360.227 42.38C359.827 39.94 359.447 37.58 359.087 35.3C358.727 32.98 358.407 30.88 358.127 29C357.847 27.08 357.607 25.52 357.407 24.32C355.527 31.12 353.907 36.88 352.547 41.6C351.227 46.28 350.087 50.12 349.127 53.12C348.207 56.08 347.367 58.36 346.607 59.96C345.887 61.56 345.187 62.66 344.507 63.26C343.827 63.9 343.087 64.22 342.287 64.22ZM391.456 64.22C389.536 64.22 388.196 63.8 387.436 62.96C386.716 62.16 386.356 61.12 386.356 59.84C386.356 58.68 386.596 57.3 387.076 55.7C387.556 54.1 388.036 52.56 388.516 51.08C389.316 48.8 390.196 46.32 391.156 43.64C392.156 40.96 393.196 38.24 394.276 35.48C395.356 32.72 396.436 30.02 397.516 27.38C398.636 24.74 399.696 22.32 400.696 20.12C397.936 20.16 395.596 20.24 393.676 20.36C391.796 20.44 390.076 20.56 388.516 20.72C386.996 20.88 385.356 21.12 383.596 21.44C383.756 19.96 384.496 18.82 385.816 18.02C387.136 17.22 388.896 16.66 391.096 16.34C393.296 15.98 395.816 15.8 398.656 15.8C401.016 15.8 403.156 15.88 405.076 16.04C406.996 16.2 408.796 16.38 410.476 16.58C412.196 16.74 413.896 16.86 415.576 16.94C415.496 17.82 415.116 18.38 414.436 18.62C413.756 18.86 412.876 18.98 411.796 18.98C411.076 19.38 410.256 19.66 409.336 19.82C408.416 19.94 407.456 20.02 406.456 20.06C405.496 20.1 404.556 20.12 403.636 20.12C402.156 23.84 400.596 28.18 398.956 33.14C397.316 38.06 395.716 43.4 394.156 49.16C393.596 51.2 393.096 53 392.656 54.56C392.256 56.12 391.936 57.56 391.696 58.88C391.496 60.16 391.396 61.46 391.396 62.78C391.396 62.98 391.396 63.2 391.396 63.44C391.396 63.68 391.416 63.94 391.456 64.22ZM440.505 66.26C439.585 66.26 438.525 65.72 437.325 64.64C436.125 63.56 434.865 62.14 433.545 60.38C432.265 58.66 430.985 56.76 429.705 54.68C428.425 52.56 427.245 50.46 426.165 48.38C425.085 46.3 424.165 44.42 423.405 42.74C422.285 46.58 421.205 50.36 420.165 54.08C419.165 57.8 418.225 61.18 417.345 64.22C416.265 64.22 415.285 63.92 414.405 63.32C413.525 62.76 413.085 62.02 413.085 61.1C413.085 60.66 413.185 60.12 413.385 59.48C413.585 58.88 413.765 58.32 413.925 57.8C414.965 54.52 415.965 51.5 416.925 48.74C417.885 45.94 418.805 43.3 419.685 40.82C420.565 38.3 421.465 35.82 422.385 33.38C423.345 30.9 424.345 28.38 425.385 25.82C426.465 23.26 427.645 20.52 428.925 17.6C427.285 17.92 425.845 18.34 424.605 18.86C423.405 19.38 422.425 19.86 421.665 20.3C420.945 20.74 420.445 20.96 420.165 20.96C419.965 20.96 419.705 20.86 419.385 20.66C419.065 20.46 418.765 20.22 418.485 19.94C418.245 19.62 418.125 19.34 418.125 19.1C419.165 18.66 420.405 18.18 421.845 17.66C423.285 17.14 424.865 16.7 426.585 16.34C428.305 15.98 430.085 15.8 431.925 15.8C433.685 15.8 435.465 16.02 437.265 16.46C439.105 16.86 440.785 17.52 442.305 18.44C443.865 19.32 445.125 20.48 446.085 21.92C447.045 23.36 447.525 25.1 447.525 27.14C447.525 29.06 447.085 30.74 446.205 32.18C445.325 33.58 444.165 34.76 442.725 35.72C441.285 36.68 439.705 37.46 437.985 38.06C436.265 38.62 434.565 39.06 432.885 39.38C431.205 39.7 429.665 39.92 428.265 40.04C426.865 40.12 425.785 40.16 425.025 40.16C426.265 42.28 427.465 44.32 428.625 46.28C429.785 48.24 431.045 50.2 432.405 52.16C433.765 54.12 435.345 56.08 437.145 58.04C438.985 60 441.185 62 443.745 64.04C443.505 64.68 443.045 65.2 442.365 65.6C441.685 66.04 441.065 66.26 440.505 66.26ZM424.485 38.96C426.685 38.8 428.885 38.44 431.085 37.88C433.285 37.32 435.285 36.52 437.085 35.48C438.925 34.44 440.385 33.14 441.465 31.58C442.585 29.98 443.145 28.08 443.145 25.88C443.145 23.72 442.625 22.04 441.585 20.84C440.545 19.6 439.205 18.72 437.565 18.2C435.925 17.64 434.205 17.36 432.405 17.36C431.045 20.08 429.705 23.34 428.385 27.14C427.065 30.9 425.765 34.84 424.485 38.96ZM446.556 64.28C446.716 62.72 447.256 61.58 448.176 60.86C449.096 60.18 450.276 59.72 451.716 59.48C453.196 59.28 454.796 59.18 456.516 59.18C457.236 57.66 457.936 55.8 458.616 53.6C459.336 51.36 460.016 48.96 460.656 46.4C461.296 43.84 461.916 41.24 462.516 38.6C463.156 35.96 463.736 33.42 464.256 30.98C464.816 28.54 465.336 26.34 465.816 24.38C466.336 22.38 466.796 20.78 467.196 19.58C465.156 19.62 463.376 19.7 461.856 19.82C460.376 19.9 458.976 20.02 457.656 20.18C456.336 20.34 454.936 20.56 453.456 20.84C453.816 19.16 454.976 17.92 456.936 17.12C458.896 16.32 461.936 15.92 466.056 15.92C468.096 15.92 470.176 16 472.296 16.16C474.456 16.32 476.416 16.5 478.176 16.7C479.976 16.86 481.356 17.02 482.316 17.18C481.236 18.26 480.136 18.92 479.016 19.16C477.936 19.4 476.976 19.52 476.136 19.52C474.896 19.52 473.736 19.52 472.656 19.52C471.576 19.52 470.576 19.54 469.656 19.58C469.456 20.58 469.176 22 468.816 23.84C468.496 25.68 468.116 27.74 467.676 30.02C467.276 32.3 466.836 34.64 466.356 37.04C465.916 39.44 465.476 41.7 465.036 43.82C464.596 45.94 464.196 47.74 463.836 49.22C463.236 51.62 462.536 53.7 461.736 55.46C460.976 57.22 460.056 58.5 458.976 59.3C461.096 59.42 463.296 59.62 465.576 59.9C467.896 60.18 470.096 60.34 472.176 60.38C470.896 61.66 469.596 62.46 468.276 62.78C466.956 63.1 465.856 63.26 464.976 63.26C463.016 63.26 461.216 63.26 459.576 63.26C457.976 63.3 456.456 63.34 455.016 63.38C453.576 63.42 452.156 63.5 450.756 63.62C449.396 63.78 447.996 64 446.556 64.28ZM488.789 64.22C486.309 64.22 484.169 63.72 482.369 62.72C480.569 61.72 479.169 60.38 478.169 58.7C477.209 57.02 476.729 55.18 476.729 53.18C476.729 51.38 477.109 49.6 477.869 47.84C478.669 46.08 479.769 44.48 481.169 43.04C482.569 41.6 484.209 40.4 486.089 39.44C487.969 38.48 489.989 37.88 492.149 37.64C490.629 36.36 489.509 34.9 488.789 33.26C488.069 31.62 487.709 29.98 487.709 28.34C487.709 26.22 488.229 24.2 489.269 22.28C490.349 20.36 491.829 18.82 493.709 17.66C495.629 16.46 497.809 15.86 500.249 15.86C502.569 15.86 504.329 16.44 505.529 17.6C506.769 18.72 507.389 20.34 507.389 22.46C507.389 23.98 507.109 25.44 506.549 26.84C506.029 28.24 505.389 29.38 504.629 30.26C503.869 31.14 503.149 31.58 502.469 31.58C501.989 31.58 501.529 31.38 501.089 30.98C500.649 30.54 500.289 30.04 500.009 29.48C501.449 28.28 502.649 27 503.609 25.64C504.609 24.24 505.109 22.78 505.109 21.26C505.109 20.02 504.729 19.08 503.969 18.44C503.249 17.76 502.209 17.42 500.849 17.42C499.009 17.42 497.449 17.98 496.169 19.1C494.929 20.18 493.989 21.62 493.349 23.42C492.709 25.18 492.389 27.1 492.389 29.18C492.389 30.7 492.629 32.32 493.109 34.04C493.629 35.72 494.649 37.2 496.169 38.48C493.449 38.92 491.069 39.94 489.029 41.54C486.989 43.1 485.409 44.94 484.289 47.06C483.169 49.18 482.609 51.28 482.609 53.36C482.609 54.64 482.849 55.94 483.329 57.26C483.849 58.58 484.669 59.68 485.789 60.56C486.949 61.48 488.469 61.94 490.349 61.94C492.509 61.94 494.629 61.34 496.709 60.14C498.829 58.94 500.769 57.36 502.529 55.4C504.289 53.4 505.709 51.28 506.789 49.04L507.869 49.76C506.429 52.48 504.749 54.94 502.829 57.14C500.909 59.3 498.769 61.02 496.409 62.3C494.049 63.58 491.509 64.22 488.789 64.22ZM521.955 64.22C519.755 64.22 517.655 63.82 515.655 63.02C513.695 62.26 512.095 61.06 510.855 59.42C509.615 57.82 508.995 55.82 508.995 53.42C508.995 51.3 509.435 49.66 510.315 48.5C511.195 47.3 512.275 46.46 513.555 45.98C514.835 45.5 516.055 45.26 517.215 45.26C516.055 46.5 515.175 47.82 514.575 49.22C514.015 50.62 513.735 52.02 513.735 53.42C513.735 54.86 514.055 56.2 514.695 57.44C515.375 58.68 516.395 59.68 517.755 60.44C519.155 61.2 520.895 61.58 522.975 61.58C524.775 61.58 526.535 61.26 528.255 60.62C529.975 59.98 531.375 59.04 532.455 57.8C533.575 56.52 534.135 54.94 534.135 53.06C534.135 51.38 533.675 49.94 532.755 48.74C531.875 47.5 530.715 46.4 529.275 45.44C527.875 44.48 526.375 43.56 524.775 42.68C523.215 41.8 521.715 40.88 520.275 39.92C518.875 38.92 517.715 37.78 516.795 36.5C515.915 35.18 515.475 33.62 515.475 31.82C515.475 30.14 515.875 28.38 516.675 26.54C517.475 24.7 518.635 22.96 520.155 21.32C521.675 19.68 523.495 18.36 525.615 17.36C527.735 16.32 530.095 15.8 532.695 15.8C535.175 15.8 536.915 16.38 537.915 17.54C538.915 18.66 539.415 20.12 539.415 21.92C539.415 23.36 539.155 24.92 538.635 26.6C538.115 28.24 537.495 29.82 536.775 31.34C536.055 32.86 535.375 34.14 534.735 35.18C533.935 35.02 533.355 34.7 532.995 34.22C532.675 33.74 532.515 33.14 532.515 32.42C532.515 31.58 532.695 30.64 533.055 29.6C533.415 28.52 533.815 27.42 534.255 26.3C534.695 25.14 535.095 24.02 535.455 22.94C535.815 21.82 535.995 20.84 535.995 20C535.995 19.24 535.755 18.64 535.275 18.2C534.835 17.76 533.975 17.54 532.695 17.54C530.815 17.54 529.075 17.98 527.475 18.86C525.875 19.7 524.475 20.8 523.275 22.16C522.075 23.48 521.155 24.9 520.515 26.42C519.875 27.9 519.555 29.24 519.555 30.44C519.555 31.92 519.995 33.18 520.875 34.22C521.755 35.26 522.875 36.22 524.235 37.1C525.635 37.94 527.115 38.78 528.675 39.62C530.275 40.46 531.755 41.42 533.115 42.5C534.515 43.54 535.655 44.78 536.535 46.22C537.415 47.62 537.855 49.34 537.855 51.38C537.855 53.46 537.395 55.3 536.475 56.9C535.555 58.46 534.315 59.78 532.755 60.86C531.195 61.98 529.475 62.82 527.595 63.38C525.715 63.94 523.835 64.22 521.955 64.22Z" fill="#F63FE7"/>
</g>
<defs>
<filter id="filter0_d_0_1" x="27.5707" y="15.8" width="515.845" height="58.46" filterUnits="userSpaceOnUse" color-interpolation-filters="sRGB">
<feFlood flood-opacity="0" result="BackgroundImageFix"/>
<feColorMatrix in="SourceAlpha" type="matrix" values="0 0 0 0 0 0 0 0 0 0 0 0 0 0 0 0 0 0 127 0" result="hardAlpha"/>
<feOffset dy="4"/>
<feGaussianBlur stdDeviation="2"/>
<feComposite in2="hardAlpha" operator="out"/>
<feColorMatrix type="matrix" values="0 0 0 0 0 0 0 0 0 0 0 0 0 0 0 0 0 0 0.25 0"/>
<feBlend mode="normal" in2="BackgroundImageFix" result="effect1_dropShadow_0_1"/>
<feBlend mode="normal" in="SourceGraphic" in2="effect1_dropShadow_0_1" result="shape"/>
</filter>
</defs>
</svg>
